<svg xmlns="http://www.w3.org/2000/svg" viewBox="-11 -22.7 21 36.7">
	<path d="M-2.4-6.3 2.6-5.9C3.3-5.8 3.3-7.2 2.7-7.2ZM-3.5-12.2-5.9-20.3-3.5-21.2-1.5-12.7ZM-.4-13.3 0-18.5 1.9-18.2 1.1-12.7ZM2.3-12.2 4.9-19.4 7.5-18.5 4.2-11.1ZM3.1-13 3.8-19.7 1.8-19.6 1.9-12.4ZM-2.1-12.9-.1-12.6-1.2-22.7-3-22.5Z" fill="#bb7"/>
	<path d="M-11 11C-11 13-9 14-6 14L5 14C8 14 10 13 10 11 10 5 9 2 6-2 4-4 4-5 3-6 2-8 3-10 7-11 8-12 7-13 5-13 5-15 4-16 1-13-1-16-2.3333-13-4-13-5-14-8-14-6-12-3-10-2-8-3-6-7-1-11 5-11 11Z" fill="#753"/>
	<path d="M-3-8C-3.9-7.8-3.6-6.9-3-7L3-8C3.7-8.2 3.3-9.2 2.4-9.1ZM-2.4-6.3 2.6-5.9C3.3-5.8 3.3-7.2 2.7-7.2Z" fill="#987"/>
	<path d="M-.3-1 4.9-1 4.9.3 3 .3 3 5.6A1 1 0 01-1.2 5.4L-.1 5.4A1 1 0 002 5.5L2 .3-.3.3ZM.5 4.3-1.7 4.3-1.7 9.2A1 1 0 01-6.3 9.1L-5.1 9.1A1 1 0 00-2.9 9.1L-2.9 4.3-5.5 4.3-5.5 3.3.5 3.3Z" fill="#600"/>
</svg>